<svg xmlns="http://www.w3.org/2000/svg" xmlns:xlink="http://www.w3.org/1999/xlink" width="40" zoomAndPan="magnify" viewBox="0 0 30 30.000001" height="40" preserveAspectRatio="xMidYMid meet" version="1.0"><defs><clipPath id="d85f11f5ee"><path d="M 2.8125 1.753906 L 27.300781 1.753906 L 27.300781 27.15625 L 2.8125 27.15625 Z M 2.8125 1.753906 " clip-rule="nonzero"/></clipPath><clipPath id="f2e703c329"><path d="M 6.4375 1.753906 L 23.554688 1.753906 C 25.558594 1.753906 27.183594 3.378906 27.183594 5.382812 L 27.183594 23.648438 C 27.183594 25.652344 25.558594 27.277344 23.554688 27.277344 L 6.4375 27.277344 C 4.433594 27.277344 2.8125 25.652344 2.8125 23.648438 L 2.8125 5.382812 C 2.8125 3.378906 4.433594 1.753906 6.4375 1.753906 Z M 6.4375 1.753906 " clip-rule="nonzero"/></clipPath></defs><g clip-path="url(#d85f11f5ee)"><g clip-path="url(#f2e703c329)"><path stroke-linecap="butt" transform="matrix(0.725806, 0, 0, 0.725806, 2.811117, 1.753821)" fill="none" stroke-linejoin="miter" d="M 4.99635 0.000116969 L 28.580031 0.000116969 C 31.340968 0.000116969 33.579857 2.239006 33.579857 4.999943 L 33.579857 30.165916 C 33.579857 32.926853 31.340968 35.165742 28.580031 35.165742 L 4.99635 35.165742 C 2.235412 35.165742 0.00190551 32.926853 0.00190551 30.165916 L 0.00190551 4.999943 C 0.00190551 2.239006 2.235412 0.000116969 4.99635 0.000116969 Z M 4.99635 0.000116969 " stroke="#2563eb" stroke-width="2" stroke-opacity="1" stroke-miterlimit="4"/></g></g><path fill="#3b82f6" d="M 7.390625 15.621094 C 7.390625 9.953125 11.253906 5.359375 16.019531 5.359375 C 19.304688 5.359375 22.164062 7.539062 23.609375 10.753906 C 22.300781 6.875 19.015625 4.117188 15.1875 4.117188 C 10.199219 4.132812 6.148438 8.796875 6.148438 14.550781 C 6.148438 18.207031 7.785156 21.441406 10.269531 23.296875 C 8.496094 21.40625 7.390625 18.683594 7.390625 15.621094 Z M 7.390625 15.621094 " fill-opacity="1" fill-rule="nonzero"/><path fill="#1d4ed8" d="M 19.253906 18.683594 L 19.289062 18.632812 C 19.269531 18.632812 19.253906 18.652344 19.238281 18.652344 L 18.84375 18.734375 L 19 19.128906 Z M 19.253906 18.683594 " fill-opacity="1" fill-rule="nonzero"/><path fill="#2563eb" d="M 19.066406 8.949219 L 12.617188 8.441406 C 11.679688 8.371094 10.878906 9.136719 10.878906 10.191406 L 10.878906 19.84375 L 12.089844 18.972656 C 12.089844 18.632812 12.34375 18.308594 12.667969 18.257812 L 13.210938 18.15625 L 15.492188 16.488281 C 15.355469 16.40625 15.269531 16.234375 15.269531 16.046875 L 15.269531 15.46875 C 15.269531 15.144531 15.476562 14.871094 15.746094 14.839844 L 16.667969 14.753906 C 16.90625 14.738281 17.109375 14.957031 17.125 15.265625 L 17.125 15.296875 L 17.175781 15.265625 C 17.261719 15.214844 17.347656 15.195312 17.433594 15.214844 C 17.519531 15.246094 17.585938 15.316406 17.621094 15.417969 C 17.621094 15.417969 17.671875 15.570312 17.773438 15.824219 C 17.910156 16.199219 18.113281 16.746094 18.300781 17.273438 C 18.335938 17.253906 18.367188 17.238281 18.417969 17.222656 L 19.21875 17.085938 C 19.441406 17.050781 19.609375 17.253906 19.609375 17.527344 L 19.628906 18.039062 C 19.628906 18.039062 19.628906 18.054688 19.628906 18.054688 L 20.308594 16.898438 L 20.359375 16.828125 L 20.242188 10.480469 C 20.191406 9.683594 19.695312 9 19.066406 8.949219 Z M 14.265625 16.167969 C 14.265625 16.488281 14.046875 16.796875 13.738281 16.828125 L 12.652344 16.984375 C 12.34375 17.035156 12.070312 16.777344 12.070312 16.4375 L 12.070312 15.808594 C 12.070312 15.46875 12.328125 15.160156 12.632812 15.128906 L 13.722656 15.027344 C 14.011719 14.992188 14.25 15.246094 14.25 15.570312 Z M 19.558594 15.503906 C 19.558594 15.773438 19.390625 16.03125 19.1875 16.0625 L 18.386719 16.183594 C 18.164062 16.21875 17.976562 15.996094 17.960938 15.707031 L 17.960938 15.179688 C 17.960938 14.890625 18.148438 14.632812 18.367188 14.601562 L 19.167969 14.53125 C 19.371094 14.515625 19.558594 14.71875 19.558594 15.007812 Z M 19.527344 12.964844 C 19.527344 13.238281 19.371094 13.476562 19.152344 13.492188 L 12.652344 13.902344 C 12.34375 13.917969 12.089844 13.664062 12.070312 13.308594 L 12.070312 10.210938 C 12.070312 9.871094 12.328125 9.613281 12.632812 9.632812 L 19.101562 9.9375 C 19.304688 9.953125 19.492188 10.175781 19.492188 10.449219 Z M 19.527344 12.964844 " fill-opacity="1" fill-rule="nonzero"/><path fill="#1d4ed8" d="M 18.710938 10.449219 L 17.910156 10.414062 C 17.671875 10.414062 17.5 10.636719 17.5 10.925781 L 17.519531 12.523438 C 17.519531 12.8125 17.722656 13.050781 17.941406 13.035156 L 18.761719 13 C 18.980469 12.984375 19.152344 12.761719 19.132812 12.472656 L 19.117188 10.957031 C 19.101562 10.6875 18.929688 10.449219 18.710938 10.449219 Z M 18.742188 12.488281 L 17.941406 12.507812 L 17.910156 10.941406 L 18.710938 10.957031 Z M 18.742188 12.488281 " fill-opacity="1" fill-rule="nonzero"/><path fill="#3b82f6" d="M 19.644531 20.132812 L 18.949219 21.355469 L 18.914062 21.425781 C 18.84375 21.542969 18.742188 21.628906 18.640625 21.628906 C 18.554688 21.628906 18.472656 21.59375 18.4375 21.511719 C 18.4375 21.492188 18.417969 21.476562 18.417969 21.457031 L 18.367188 21.304688 L 18.078125 20.523438 L 18.046875 20.4375 L 17.175781 18.175781 L 17.175781 18.546875 C 17.175781 18.855469 16.992188 19.144531 16.734375 19.210938 L 15.800781 19.417969 C 15.527344 19.484375 15.304688 19.261719 15.304688 18.941406 L 15.304688 18.855469 L 13.042969 20.660156 L 11.222656 22.105469 C 11.117188 22.191406 11 22.226562 10.898438 22.226562 L 10.898438 23.144531 C 10.898438 24.25 11.730469 24.863281 12.683594 24.539062 L 19.289062 22.277344 C 19.917969 22.054688 20.410156 21.203125 20.394531 20.371094 L 20.359375 18.804688 L 19.714844 19.945312 Z M 14.300781 22.171875 C 14.300781 22.515625 14.0625 22.855469 13.773438 22.941406 L 12.667969 23.28125 C 12.34375 23.382812 12.089844 23.160156 12.089844 22.804688 L 12.089844 22.15625 C 12.089844 21.800781 12.34375 21.441406 12.667969 21.355469 L 13.773438 21.066406 C 14.0625 21 14.300781 21.203125 14.300781 21.542969 Z M 17.195312 21.339844 C 17.195312 21.644531 17.007812 21.96875 16.753906 22.039062 L 15.816406 22.328125 C 15.542969 22.410156 15.324219 22.207031 15.324219 21.882812 L 15.324219 21.304688 C 15.324219 20.980469 15.542969 20.660156 15.800781 20.589844 L 16.734375 20.351562 C 16.992188 20.285156 17.195312 20.488281 17.195312 20.796875 Z M 17.195312 21.339844 " fill-opacity="1" fill-rule="nonzero"/><path fill="#2563eb" d="M 22.828125 15.808594 L 22.742188 13.917969 C 22.742188 13.835938 22.707031 13.75 22.65625 13.679688 C 22.605469 13.613281 22.539062 13.597656 22.488281 13.597656 L 21.023438 13.816406 C 20.988281 13.816406 20.957031 13.835938 20.921875 13.867188 C 20.835938 13.9375 20.769531 14.074219 20.785156 14.226562 C 20.785156 14.328125 20.820312 14.414062 20.871094 14.464844 C 20.921875 14.515625 20.988281 14.550781 21.058594 14.53125 L 21.398438 14.464844 L 21.6875 14.414062 L 21.941406 14.363281 L 21.585938 14.976562 L 21.550781 15.042969 L 20.324219 17.238281 L 20.171875 17.492188 L 19.132812 19.28125 L 18.863281 19.738281 L 18.691406 19.28125 C 18.691406 19.28125 18.625 19.09375 18.523438 18.804688 C 18.402344 18.464844 18.234375 18.003906 18.0625 17.5625 C 17.910156 17.152344 17.757812 16.746094 17.652344 16.457031 C 17.570312 16.199219 17.5 16.046875 17.5 16.046875 C 17.46875 15.945312 17.398438 15.875 17.3125 15.84375 C 17.246094 15.824219 17.175781 15.824219 17.125 15.859375 C 17.109375 15.875 17.074219 15.875 17.058594 15.894531 L 16.277344 16.488281 L 14.097656 18.140625 L 12.089844 19.621094 L 10.984375 20.453125 C 10.949219 20.488281 10.914062 20.503906 10.878906 20.539062 C 10.828125 20.609375 10.777344 20.675781 10.761719 20.742188 C 10.761719 20.761719 10.746094 20.777344 10.746094 20.796875 C 10.710938 20.929688 10.710938 21.066406 10.761719 21.167969 C 10.777344 21.21875 10.8125 21.253906 10.863281 21.289062 C 10.863281 21.289062 10.878906 21.304688 10.878906 21.304688 C 10.933594 21.339844 10.984375 21.355469 11.035156 21.355469 C 11.152344 21.375 11.273438 21.324219 11.390625 21.238281 L 12.890625 20.0625 L 13.179688 19.824219 L 14.265625 18.972656 L 15.304688 18.175781 L 15.96875 17.648438 L 16.734375 17.050781 L 17.007812 16.828125 L 17.125 17.171875 L 18.199219 20.03125 L 18.316406 20.351562 L 18.402344 20.589844 L 18.453125 20.742188 C 18.503906 20.863281 18.589844 20.929688 18.691406 20.914062 C 18.792969 20.914062 18.894531 20.828125 18.964844 20.710938 L 19.320312 20.0625 L 19.492188 19.773438 L 21.941406 15.484375 L 22.28125 14.871094 L 22.316406 15.636719 L 22.335938 16.113281 C 22.335938 16.21875 22.367188 16.285156 22.417969 16.351562 C 22.46875 16.40625 22.519531 16.4375 22.589844 16.421875 C 22.640625 16.40625 22.691406 16.371094 22.726562 16.335938 C 22.742188 16.320312 22.742188 16.300781 22.757812 16.285156 C 22.792969 16.21875 22.828125 16.113281 22.8125 16.03125 Z M 22.828125 15.808594 " fill-opacity="1" fill-rule="nonzero"/></svg>